<?xml version="1.0" standalone="no"?>
<!DOCTYPE svg PUBLIC "-//W3C//DTD SVG 20010904//EN"
 "http://www.w3.org/TR/2001/REC-SVG-20010904/DTD/svg10.dtd">
<svg version="1.0" xmlns="http://www.w3.org/2000/svg"
 width="335.000000pt" height="335.000000pt" viewBox="0 0 335.000000 335.000000"
 preserveAspectRatio="xMidYMid meet">
<metadata>
Created by potrace 1.14, written by Peter Selinger 2001-2017
</metadata>
<g transform="translate(0.000000,335.000000) scale(0.100000,-0.100000)"
fill="#000000" stroke="none">
<path d="M1145 3298 c-127 -82 -272 -238 -291 -311 -10 -42 11 -33 96 41 83
72 209 144 327 186 232 82 570 78 818 -11 98 -36 230 -103 295 -152 87 -65
196 -179 257 -268 44 -65 59 -80 70 -72 20 17 16 62 -14 136 -64 163 -185 314
-326 407 -160 105 -98 96 -659 96 l-493 0 -80 -52z"/>
<path d="M3110 3314 c113 -18 213 -33 223 -34 25 0 21 29 -5 35 -97 21 -220
35 -313 34 l-110 -1 205 -34z"/>
<path d="M0 3146 c0 -12 145 -86 169 -86 20 0 20 -18 1 -55 -21 -42 -19 -70
11 -122 14 -26 17 -45 12 -102 -6 -68 -5 -71 25 -100 17 -17 38 -31 46 -31 9
0 16 -7 16 -15 0 -38 28 -7 63 68 21 45 65 120 98 167 52 72 60 88 53 109 -8
22 -20 27 -89 42 -119 24 -220 56 -314 100 -96 45 -91 43 -91 25z m362 -139
c53 -13 100 -26 104 -30 4 -4 -4 -20 -18 -35 -38 -41 -91 -119 -132 -194 -21
-38 -43 -68 -50 -68 -7 0 -21 9 -31 20 -15 17 -17 31 -11 90 5 59 3 74 -14
102 -27 44 -26 92 2 118 26 24 29 24 150 -3z"/>
<path d="M3255 2973 c-67 -18 -124 -26 -224 -29 -74 -3 -137 -7 -142 -9 -4 -3
25 -69 64 -148 40 -78 85 -170 100 -204 35 -80 58 -88 131 -48 73 39 86 58 86
119 0 44 4 57 26 77 32 30 54 71 54 102 0 27 -52 80 -95 98 -30 12 -30 12 33
26 40 9 62 19 62 29 0 8 -1 13 -2 13 -2 -1 -43 -12 -93 -26z m-45 -46 c0 -7
15 -18 33 -25 19 -7 44 -23 57 -36 29 -32 22 -63 -27 -117 -31 -34 -36 -47
-34 -81 1 -21 -1 -48 -4 -58 -7 -22 -107 -72 -128 -64 -9 3 -25 30 -36 59 -11
30 -49 112 -85 182 l-64 128 97 3 c53 1 112 6 131 11 50 13 60 13 60 -2z"/>
<path d="M1081 2959 c-23 -52 -41 -197 -41 -320 0 -71 -4 -129 -9 -129 -10 0
-79 -151 -169 -367 l-58 -142 -44 89 -44 89 96 90 c53 50 98 100 101 111 5 21
-26 76 -54 93 -28 17 -67 -2 -146 -72 l-77 -69 -34 56 c-48 80 -100 142 -129
153 -32 12 -80 -13 -94 -47 -8 -23 0 -43 61 -152 l70 -127 -115 -110 c-120
-114 -127 -127 -103 -180 30 -67 94 -61 162 16 76 84 74 86 75 -63 0 -73 3
-148 6 -168 15 -97 29 -151 41 -161 16 -13 19 -65 4 -74 -8 -5 -7 -12 2 -22 7
-8 24 -46 39 -84 l27 -70 -36 -24 c-53 -36 -79 -32 -140 21 -29 26 -57 43 -61
38 -4 -5 -36 -44 -70 -86 -79 -99 -125 -148 -140 -148 -8 0 -10 61 -8 213 1
160 -3 247 -17 357 -36 281 -8 591 74 823 16 47 30 88 30 91 0 3 -14 12 -30
21 -38 20 -126 110 -193 198 -47 61 -52 65 -55 43 -2 -19 13 -45 54 -98 58
-72 162 -178 176 -178 4 0 -4 -32 -18 -72 -44 -131 -72 -273 -89 -450 l-6 -66
-34 14 c-51 21 -85 18 -85 -6 0 -16 7 -20 31 -20 44 0 69 -17 69 -45 0 -14 4
-25 8 -25 4 0 14 -66 21 -147 7 -82 16 -168 21 -193 5 -25 9 -102 10 -171 l0
-125 -62 -22 c-35 -12 -71 -22 -80 -22 -29 0 -22 -52 14 -110 l32 -51 -32 -25
c-18 -14 -32 -34 -32 -45 0 -18 3 -17 38 9 51 40 74 44 107 18 l27 -22 -62
-62 c-58 -57 -62 -64 -56 -94 3 -18 15 -45 26 -60 27 -37 26 -42 -16 -64 -35
-19 -36 -19 -50 0 -14 19 -14 19 -14 -1 0 -33 34 -38 79 -12 l40 22 35 -26
c49 -38 80 -35 127 12 43 43 50 80 22 120 -13 19 -14 28 -4 42 15 25 -1 24
-24 -1 -18 -20 -18 -21 3 -36 51 -35 0 -143 -67 -144 -31 0 -115 86 -131 135
-11 33 -9 39 15 71 31 41 119 94 157 94 16 0 41 -12 61 -30 19 -17 42 -30 51
-30 8 0 25 19 37 42 32 63 90 146 144 206 87 97 186 133 193 69 4 -30 -35 -87
-167 -252 -85 -105 -107 -143 -93 -157 7 -7 77 2 209 26 203 37 280 44 313 26
20 -11 45 -73 37 -94 -4 -9 -43 -20 -104 -30 -248 -42 -430 -85 -461 -110 -10
-7 -12 -22 -8 -48 4 -21 2 -47 -4 -58 -9 -17 -4 -24 32 -50 134 -95 148 -109
148 -149 0 -20 -6 -45 -12 -54 -12 -15 -18 -15 -63 -3 -27 8 -83 28 -124 45
-111 47 -159 44 -187 -11 -16 -30 -16 -31 -77 -24 -37 3 -85 17 -119 34 -51
25 -58 26 -58 11 0 -22 67 -55 139 -69 29 -5 109 -12 177 -15 106 -5 124 -3
124 10 0 11 -11 15 -37 16 -21 0 -57 4 -81 7 l-43 7 20 22 c23 24 36 22 159
-27 72 -29 73 -33 42 -132 -20 -63 -27 -168 -12 -168 5 0 8 22 8 48 0 27 11
87 24 135 20 75 26 87 41 82 11 -3 27 -7 38 -10 33 -10 63 26 68 82 5 44 2 54
-24 84 -28 33 -53 80 -53 99 0 6 25 10 56 10 53 0 59 3 108 47 28 25 70 54 92
64 l41 19 104 -60 c57 -33 109 -60 116 -60 24 0 24 22 1 111 -26 103 -26 104
54 115 26 4 55 12 64 19 13 9 30 9 78 -1 33 -7 78 -16 99 -19 21 -3 37 -12 37
-19 0 -15 116 -171 148 -199 20 -18 21 -18 64 10 23 15 67 47 96 70 30 24 58
43 62 43 5 0 15 6 22 12 43 42 94 70 140 78 29 6 62 13 72 16 16 5 18 2 13
-15 -10 -41 29 -70 116 -83 42 -7 77 -15 77 -18 0 -3 -23 -32 -50 -65 -28 -33
-49 -67 -47 -75 4 -22 78 -17 165 12 39 14 72 21 72 16 0 -5 -22 -55 -49 -111
-44 -91 -109 -242 -163 -381 -10 -27 -17 -51 -14 -54 3 -2 10 8 17 24 6 16 15
37 20 46 4 9 33 78 64 153 31 75 78 183 105 240 43 94 52 106 91 125 46 24 79
23 142 -4 36 -14 37 -17 37 -64 0 -49 -1 -51 -48 -81 -27 -17 -67 -48 -90 -69
-34 -32 -42 -46 -42 -75 0 -47 14 -83 38 -96 17 -9 43 -6 110 14 16 6 22 3 22
-9 0 -9 -5 -16 -11 -16 -5 0 -8 -4 -5 -9 3 -5 -1 -12 -10 -15 -8 -3 -13 -10
-9 -15 3 -5 1 -12 -5 -16 -5 -3 -10 -22 -10 -41 0 -42 50 -94 89 -94 22 0 20
3 -17 28 -59 38 -63 62 -21 141 29 55 41 67 84 87 67 32 100 31 130 -4 15 -18
20 -31 14 -38 -13 -16 33 -52 78 -60 19 -4 50 -4 69 -1 30 5 45 0 99 -38 35
-24 72 -46 83 -49 11 -4 22 -19 26 -36 4 -22 11 -30 27 -30 18 0 20 4 15 26
-6 21 -4 25 11 21 10 -3 33 -8 51 -12 48 -10 40 12 -9 25 -23 6 -49 15 -58 19
-66 30 -132 69 -177 103 -91 68 -92 124 -3 300 l51 102 -21 77 c-37 134 -26
187 40 204 27 7 27 6 31 -62 3 -56 9 -76 34 -114 17 -25 34 -57 37 -71 9 -33
38 -69 76 -91 45 -26 40 -1 -9 46 -26 24 -40 46 -40 62 0 14 -4 25 -8 25 -16
0 -62 97 -68 143 -6 44 3 102 26 163 l11 27 34 -33 c27 -26 39 -31 59 -26 36
9 33 27 -3 20 -24 -5 -32 -1 -54 28 -37 49 -57 104 -57 159 0 42 5 55 34 87
19 21 51 47 70 57 20 11 36 25 36 32 0 17 -67 -16 -94 -46 -44 -48 -44 -21 -1
112 24 72 55 187 69 255 25 118 26 134 26 480 0 206 -4 372 -10 392 -6 22 -6
38 0 44 6 6 10 21 10 35 l0 25 -32 -30 c-18 -17 -52 -45 -75 -63 -24 -18 -43
-37 -43 -42 0 -22 33 -19 66 6 19 15 37 25 39 24 10 -11 25 -248 25 -408 0
-282 -27 -457 -108 -691 -42 -122 -47 -146 -52 -252 l-5 -118 -67 41 c-84 50
-102 45 -111 -32 -8 -66 -37 -100 -75 -90 -31 9 -75 -4 -115 -33 -27 -20 -27
-20 -42 0 -8 10 -12 26 -9 34 3 8 2 11 -2 7 -4 -4 -21 16 -37 45 -16 29 -67
90 -113 135 l-83 83 49 103 c28 56 50 107 50 114 0 7 -14 23 -31 35 -39 29
-147 246 -222 448 -54 146 -91 266 -86 285 1 6 -2 19 -6 29 -5 11 0 168 12
365 11 190 19 348 17 350 -12 13 -17 -28 -30 -226 -8 -120 -18 -276 -23 -346
-5 -70 -10 -130 -12 -132 -3 -2 -31 5 -64 16 -50 17 -223 59 -240 59 -3 0 -5
-6 -5 -13 0 -8 26 -17 71 -25 77 -13 154 -35 208 -58 30 -13 33 -18 27 -46 -3
-17 -6 -154 -6 -304 0 -215 -3 -272 -12 -268 -7 3 -49 55 -93 115 -44 61 -88
120 -97 132 -17 22 -17 21 -115 -81 -54 -56 -103 -102 -110 -102 -12 0 -21 20
-29 67 -3 16 -14 69 -24 118 -23 108 -64 345 -81 473 -6 50 -16 92 -20 92 -5
0 -9 -10 -9 -23 0 -52 58 -407 90 -557 12 -52 28 -129 36 -170 8 -41 17 -84
20 -94 6 -18 4 -18 -24 3 -17 11 -34 21 -40 21 -5 0 -15 7 -22 15 -7 8 -16 12
-21 10 -12 -8 -155 138 -220 225 -67 89 -80 113 -82 147 -3 36 -25 41 -37 9
-5 -14 -19 -81 -30 -148 -12 -68 -23 -124 -25 -126 -7 -7 -55 87 -90 176 -33
86 -63 196 -84 306 -10 55 -5 60 79 71 68 8 90 14 90 24 0 9 -71 4 -135 -10
-26 -5 -42 -4 -46 3 -4 6 -12 69 -19 141 -15 151 -9 337 15 446 16 75 14 103
-4 60z m-585 -475 c19 -19 53 -67 76 -106 l42 -71 -39 -34 c-47 -40 -38 -47
-121 99 -45 79 -53 101 -45 117 10 18 25 28 45 30 5 1 24 -15 42 -35z m558
-160 c4 -30 2 -33 -40 -49 -45 -17 -64 -44 -21 -30 70 22 74 21 81 -33 19
-144 95 -362 163 -469 44 -71 72 -69 74 5 0 15 8 67 17 116 l17 88 34 -48 c19
-27 55 -73 79 -102 l45 -53 -6 -89 c-5 -76 -3 -93 12 -111 16 -20 20 -21 57
-9 21 7 56 21 77 32 l38 19 59 -33 c33 -18 62 -29 67 -25 4 4 2 31 -4 60 -10
45 -9 53 5 62 9 5 56 49 104 96 l86 85 60 -80 c33 -45 59 -83 57 -85 -2 -2
-59 -3 -127 -3 l-123 -1 133 -6 133 -7 38 -42 c32 -35 64 -52 73 -39 1 1 4
128 7 282 l6 280 18 -60 c35 -112 124 -330 186 -452 34 -68 59 -123 57 -123
-3 0 -40 5 -83 11 -43 6 -177 18 -298 28 -234 18 -281 15 -271 -21 2 -10 0
-21 -5 -24 -14 -8 -11 -44 4 -44 6 -1 28 -3 47 -5 19 -3 152 -16 295 -30 143
-14 279 -29 302 -33 l43 -7 -32 -67 c-28 -61 -33 -67 -55 -62 -13 4 -39 3 -59
0 -43 -9 -55 -34 -41 -88 9 -36 7 -41 -37 -94 -66 -80 -61 -104 22 -104 33 0
35 -2 21 -15 -25 -25 -158 -75 -199 -75 -26 0 -48 -8 -67 -24 -37 -31 -112
-45 -323 -61 -157 -11 -173 -10 -325 12 -157 23 -275 56 -385 106 -30 14 -84
38 -120 54 -74 34 -183 120 -205 163 -14 26 -13 32 4 62 40 68 28 115 -31 125
-35 5 -43 11 -58 47 -10 23 -21 53 -25 67 -6 26 -6 26 62 33 54 5 467 17 569
16 22 0 35 23 37 70 2 22 -3 26 -48 33 -27 4 -166 5 -307 2 -207 -5 -258 -3
-258 7 0 7 20 70 44 140 35 103 49 132 76 154 29 25 31 31 26 65 -5 32 6 68
73 231 44 106 90 217 103 247 l23 54 7 -59 c4 -33 9 -73 12 -90z m-190 107
c31 -34 16 -61 -89 -154 -150 -134 -191 -172 -301 -279 -56 -54 -106 -98 -113
-98 -19 0 -51 39 -51 63 0 21 16 41 90 109 14 13 66 61 115 108 195 184 295
270 313 270 11 0 27 -9 36 -19z m-128 -358 c22 -40 49 -91 61 -114 12 -22 20
-46 17 -53 -6 -16 -52 -38 -64 -31 -4 3 -36 52 -70 110 l-63 106 34 35 c18 19
36 31 40 27 4 -5 24 -41 45 -80z m-68 -125 l70 -118 -43 -127 c-24 -70 -49
-129 -57 -132 -7 -2 -20 -10 -29 -17 -14 -13 -18 -6 -34 63 -14 59 -19 120
-19 250 -1 161 0 173 19 187 11 8 21 14 21 13 1 -1 34 -55 72 -119z m971 -344
c-15 -18 -101 -46 -112 -35 -5 5 -5 40 -1 79 l7 71 58 -51 c45 -38 56 -54 48
-64z m-1199 -321 c0 -7 35 -33 83 -65 6 -3 -9 -29 -35 -60 -25 -29 -60 -80
-79 -112 -32 -59 -33 -59 -40 -32 -5 16 -10 62 -13 103 -5 74 -4 75 32 123 35
46 52 60 52 43z m-278 -143 c3 -72 4 -75 28 -78 20 -2 39 10 78 48 32 32 54
46 56 38 3 -7 7 -47 10 -89 l6 -77 -38 20 c-26 13 -48 17 -74 14 -29 -5 -42
-1 -66 19 -17 14 -35 25 -41 25 -13 0 -92 116 -84 124 4 3 13 6 22 6 9 1 32 9
51 19 19 10 38 15 42 12 4 -3 8 -40 10 -81z m2343 50 c63 -43 135 -128 195
-230 29 -50 60 -90 68 -90 8 0 30 14 49 30 51 45 97 38 181 -28 40 -32 42 -36
42 -87 0 -51 -3 -57 -49 -104 -52 -55 -68 -60 -111 -34 -51 30 -65 89 -28 123
l22 20 -23 23 -22 22 6 -26 c4 -17 1 -30 -9 -38 -9 -8 -16 -29 -16 -48 0 -28
9 -44 40 -75 36 -36 44 -40 77 -35 20 4 46 15 58 27 12 11 25 20 30 20 14 0
65 -52 65 -66 0 -6 -19 -49 -41 -95 -23 -46 -48 -101 -55 -123 -20 -56 -18
-125 6 -163 20 -33 20 -33 0 -33 -11 0 -20 6 -20 14 0 7 -20 24 -45 37 -25 13
-45 27 -45 31 0 5 -9 17 -20 28 -27 27 -75 25 -157 -6 -175 -67 -184 -70 -199
-49 -8 10 -14 36 -14 56 0 33 6 42 52 79 28 22 71 53 94 68 34 22 42 31 36 47
-3 11 -6 39 -4 61 1 24 -3 46 -10 51 -25 20 -207 65 -378 94 -96 16 -179 34
-184 39 -14 14 14 89 37 102 30 16 140 5 335 -32 124 -24 176 -30 184 -22 15
15 -1 40 -199 293 -59 76 -74 108 -62 131 15 27 64 23 114 -12z m-1698 -193
c32 -24 66 -48 75 -53 13 -7 -9 -14 -88 -28 l-105 -19 -23 24 c-12 13 -30 37
-40 52 l-18 27 48 53 49 54 22 -33 c13 -18 49 -53 80 -77z m1624 -5 c-23 -2
-59 -2 -82 0 l-41 3 43 52 42 52 39 -52 39 -52 -40 -3z m666 43 c32 -19 68
-35 81 -35 12 0 22 -4 22 -9 0 -8 -21 -73 -26 -79 -1 -2 -27 17 -57 41 -31 25
-64 48 -75 51 -14 5 -17 13 -14 36 2 17 6 30 8 30 1 0 29 -16 61 -35z m-19
-84 c42 -31 59 -51 44 -51 -5 0 -25 -11 -44 -24 l-35 -23 -43 40 -44 39 27 24
c36 31 45 30 95 -5z m-530 -51 c49 -65 62 -90 45 -90 -14 0 -176 30 -194 35
-18 6 -17 10 9 60 20 40 34 55 52 58 14 2 27 5 30 5 3 1 29 -30 58 -68z
m-1933 36 c8 -13 13 -30 9 -39 -6 -15 -80 -34 -91 -23 -8 7 44 86 57 86 5 0
16 -11 25 -24z m1740 -65 c-3 -6 -18 -11 -33 -10 l-27 1 30 13 c32 14 41 13
30 -4z m-1185 -53 c23 -10 21 -11 -30 -23 -30 -7 -55 -13 -56 -12 0 1 -7 21
-16 44 l-16 41 47 -20 c25 -11 57 -25 71 -30z m-80 -226 c0 -13 -18 -5 -138
67 -70 42 -92 60 -75 62 4 0 44 8 88 17 l80 17 22 -75 c12 -41 22 -81 23 -88z
m-250 110 l23 -18 -47 -28 c-25 -15 -61 -42 -79 -60 -29 -29 -41 -34 -104 -39
l-71 -7 -31 42 c-17 22 -28 44 -26 48 7 11 247 74 301 79 7 1 22 -7 34 -17z
m2209 -31 c-15 -5 -22 6 -14 19 6 9 10 9 16 -1 5 -8 4 -15 -2 -18z m-1379 -31
l45 0 -30 -24 c-66 -54 -74 -55 -111 -11 -19 22 -34 43 -34 46 0 4 19 3 43 -2
23 -4 62 -8 87 -9z m765 -9 c28 -7 27 -8 -40 -35 -68 -28 -196 -68 -201 -63
-1 1 20 29 47 63 l49 61 57 -9 c32 -5 71 -12 88 -17z m-1901 -86 c20 -30 36
-57 36 -60 0 -4 -18 6 -40 22 -32 23 -40 34 -40 61 0 17 2 32 4 32 2 0 20 -25
40 -55z"/>
<path d="M1030 1674 c31 -6 274 -10 250 -3 -14 4 -79 7 -145 7 -66 0 -113 -2
-105 -4z"/>
<path d="M1355 1240 c-10 -16 22 -59 50 -70 17 -6 27 -22 35 -52 19 -69 77
-182 112 -216 89 -88 179 1 207 203 8 57 18 86 33 102 30 32 16 40 -25 14 -43
-26 -61 -26 -132 1 l-57 21 -52 -26 c-29 -15 -65 -27 -80 -27 -35 0 -66 17
-66 35 0 18 -17 28 -25 15z m273 -46 c20 -8 54 -15 75 -16 l38 0 -7 -62 c-24
-227 -134 -286 -218 -118 -25 50 -60 151 -55 156 12 10 106 55 117 56 7 0 29
-7 50 -16z"/>
<path d="M2803 523 c-24 -2 -43 -9 -43 -15 0 -7 16 -9 46 -4 26 3 69 6 96 6
30 0 47 4 43 10 -6 10 -55 11 -142 3z"/>
<path d="M1585 2858 c8 -105 25 -143 25 -56 0 76 -11 148 -22 148 -6 0 -7 -37
-3 -92z"/>
<path d="M2654 2513 c36 -131 44 -604 13 -801 -10 -62 -20 -119 -23 -127 -4
-9 0 -15 7 -15 45 0 75 527 45 770 -8 69 -18 134 -20 145 -2 11 -5 26 -5 33
-1 6 -6 12 -12 12 -6 0 -8 -8 -5 -17z"/>
<path d="M3170 2145 c-1 -5 -1 -66 0 -135 1 -143 -19 -302 -56 -440 -28 -103
-82 -254 -112 -310 -30 -59 -92 -163 -118 -199 -27 -38 -30 -51 -11 -51 14 0
81 100 126 188 66 130 134 333 166 497 20 100 31 377 17 425 -6 19 -11 31 -12
25z"/>
<path d="M3336 1173 c-3 -16 -2 -41 3 -58 8 -26 9 -23 10 28 1 62 -4 73 -13
30z"/>
<path d="M1303 738 c-39 -49 -148 -412 -193 -643 -6 -33 -14 -68 -16 -77 -4
-12 0 -18 10 -18 9 0 18 10 21 22 25 113 55 252 55 257 0 3 6 -5 13 -19 8 -14
18 -34 25 -45 6 -11 18 -64 27 -117 15 -86 19 -98 37 -98 13 0 18 5 15 14 -26
67 -44 196 -27 196 7 0 25 9 41 21 l29 20 0 -65 c0 -53 4 -70 21 -87 l20 -20
-20 -33 c-26 -41 -26 -46 -3 -46 12 0 25 14 37 40 10 22 24 45 32 51 21 18 15
29 -17 29 -37 0 -45 25 -37 110 4 51 11 66 49 110 l43 52 65 -6 c96 -9 106
-14 140 -67 l31 -48 -15 -82 c-9 -46 -21 -89 -29 -96 -7 -8 -11 -29 -9 -53 3
-31 8 -40 23 -40 16 0 18 5 13 25 -3 14 1 42 9 64 9 21 19 62 23 90 4 28 9 51
13 51 3 0 28 -25 54 -55 l49 -55 -34 -48 c-51 -70 -51 -72 -31 -72 10 0 33 22
52 51 30 44 75 77 145 108 5 2 6 -31 2 -78 -6 -70 -5 -81 8 -81 9 0 16 6 16
14 0 8 9 102 21 208 34 329 48 482 43 490 -13 20 -23 4 -28 -44 -45 -446 -46
-452 -74 -475 -50 -41 -85 -54 -107 -39 -33 21 -178 220 -220 301 -21 41 -43
75 -49 75 -6 0 -72 -61 -146 -136 -74 -74 -143 -140 -152 -145 -42 -23 -86 48
-74 116 9 45 79 258 105 318 11 26 21 50 21 54 2 13 -17 14 -27 1z m295 -298
l21 -36 -60 10 -59 10 32 33 c34 36 34 36 66 -17z"/>
<path d="M876 513 c-8 -136 18 -513 37 -513 5 0 7 10 4 23 -14 53 -29 342 -25
459 3 71 2 128 -2 128 -4 0 -10 -44 -14 -97z"/>
<path d="M186 581 c-7 -10 162 -24 177 -14 7 5 -10 11 -38 15 -73 9 -133 9
-139 -1z"/>
<path d="M1510 112 c0 -14 64 -34 92 -30 23 3 23 4 3 15 -30 17 -95 27 -95 15z"/>
</g>
</svg>
